<?xml version="1.0" encoding="UTF-8"?>
<svg id="Warstwa_1" xmlns="http://www.w3.org/2000/svg" version="1.1" viewBox="0 0 800 800">
  <!-- Generator: Adobe Illustrator 29.8.2, SVG Export Plug-In . SVG Version: 2.1.1 Build 3)  -->
  <defs>
    <style>
      .st0 {
        fill: none;
        stroke: #000;
        stroke-linecap: round;
        stroke-linejoin: round;
        stroke-width: 66.67px;
      }
    </style>
  </defs>
  <path class="st0" d="M100,300h600M566.67,433.38l-333.33-.05M344.44,566.68l-111.11-.02M233.33,100v66.67M566.67,100v66.67M206.67,700h386.67c37.34,0,56.01,0,70.27-7.27,12.54-6.39,22.74-16.59,29.13-29.13,7.27-14.26,7.27-32.93,7.27-70.27v-320c0-37.34,0-56.01-7.27-70.27-6.39-12.54-16.59-22.74-29.13-29.13-14.26-7.27-32.93-7.27-70.27-7.27H206.67c-37.34,0-56.01,0-70.27,7.27-12.54,6.39-22.74,16.59-29.13,29.13-7.27,14.26-7.27,32.93-7.27,70.27v320c0,37.34,0,56.01,7.27,70.27,6.39,12.54,16.59,22.74,29.13,29.13,14.26,7.27,32.93,7.27,70.27,7.27Z"/>
</svg>