<?xml version="1.0" encoding="UTF-8"?>
<svg id="Capa_1" xmlns="http://www.w3.org/2000/svg" version="1.1" viewBox="0 0 800 800">
  <!-- Generator: Adobe Illustrator 29.8.2, SVG Export Plug-In . SVG Version: 2.1.1 Build 3)  -->
  <path d="M634.03,380.77v-116.59l-84.13-84.12v82.52h28.11l17.58,17.56v120.71l110.61,76.97v249.09c-.29,8.11-3.57,34.62-32.49,34.62s-34.21-28.09-34.88-34.86v-186.75h-94.36V65.99C544.47,29.55,514.96,0,478.53,0H121.23C84.77,0,55.29,29.55,55.29,65.99v656.82c0,36.46,29.48,66.01,65.94,66.01h357.31c36.42,0,65.94-29.55,65.94-66.01v-144.42h55.91v149.13l.09,1.27c1.65,24.64,19.07,71.21,73.28,71.21,50.85,0,70.29-43.09,70.97-72.49v-269.77l-110.68-76.97ZM477.85,276.59H121.91V79.37h355.93v197.22h0Z"/>
</svg>