<?xml version="1.0" encoding="UTF-8"?>
<svg id="Warstwa_1" xmlns="http://www.w3.org/2000/svg" version="1.1" viewBox="0 0 800 800">
  <!-- Generator: Adobe Illustrator 29.8.2, SVG Export Plug-In . SVG Version: 2.1.1 Build 3)  -->
  <path d="M400,700c165.69,0,300-134.31,300-300S565.69,100,400,100,100,234.31,100,400s134.31,300,300,300ZM400,750c-193.3,0-350-156.7-350-350S206.7,50,400,50s350,156.7,350,350-156.7,350-350,350Z"/>
  <path d="M150,400c0-138.07,111.93-250,250-250s250,111.93,250,250c0,13.81-11.19,25-25,25s-25-11.19-25-25c0-110.46-89.54-200-200-200s-200,89.54-200,200c0,13.81-11.19,25-25,25s-25-11.19-25-25Z"/>
  <path d="M445.65,490.5c32.85,25.23,39.02,72.32,13.79,105.17-25.23,32.85-72.32,39.02-105.17,13.79-32.85-25.23-39.02-72.32-13.79-105.17,13.8-17.96,34.97-28.73,57.62-29.29l47.65-146.7c4.12-13.18,18.15-20.52,31.33-16.39,13.18,4.12,20.52,18.15,16.39,31.33-.05.17-.11.34-.17.52l-47.65,146.7v.05ZM392.25,573.8c13.14,4.28,27.27-2.91,31.55-16.05,4.28-13.14-2.91-27.27-16.05-31.55-13.14-4.28-27.27,2.91-31.55,16.05-4.28,13.14,2.91,27.27,16.05,31.55h0Z"/>
</svg>