<?xml version="1.0" encoding="UTF-8"?>
<svg id="Warstwa_1" xmlns="http://www.w3.org/2000/svg" version="1.1" viewBox="0 0 800 800">
  <!-- Generator: Adobe Illustrator 29.8.2, SVG Export Plug-In . SVG Version: 2.1.1 Build 3)  -->
  <defs>
    <style>
      .st0 {
        stroke-linecap: round;
      }

      .st0, .st1 {
        stroke-miterlimit: 133.33;
        stroke-width: 50px;
      }

      .st0, .st1, .st2 {
        stroke: #000;
      }

      .st2 {
        stroke-miterlimit: 10;
      }
    </style>
  </defs>
  <path class="st1" d="M200,133.33c0,36.82-29.85,66.67-66.67,66.67s-66.67-29.85-66.67-66.67,29.85-66.67,66.67-66.67,66.67,29.85,66.67,66.67Z"/>
  <path class="st1" d="M200,666.67c0,36.82-29.85,66.67-66.67,66.67s-66.67-29.85-66.67-66.67,29.85-66.67,66.67-66.67,66.67,29.85,66.67,66.67Z"/>
  <path class="st1" d="M466.67,666.67c0,36.82-29.85,66.67-66.67,66.67s-66.67-29.85-66.67-66.67,29.85-66.67,66.67-66.67,66.67,29.85,66.67,66.67Z"/>
  <path class="st1" d="M466.67,133.33c0,36.82-29.85,66.67-66.67,66.67s-66.67-29.85-66.67-66.67,29.85-66.67,66.67-66.67,66.67,29.85,66.67,66.67Z"/>
  <path class="st1" d="M733.33,133.33c0,36.82-29.85,66.67-66.67,66.67s-66.67-29.85-66.67-66.67,29.85-66.67,66.67-66.67,66.67,29.85,66.67,66.67Z"/>
  <path class="st0" d="M400,200v233.33M400,600v-66.67"/>
  <path class="st0" d="M133.33,600v-233.33M133.33,200v66.67"/>
  <path class="st0" d="M666.67,200v66.67c0,62.85,0,94.28-19.53,113.81s-50.95,19.53-113.81,19.53h-200M133.33,400h66.67"/>
  <path class="st2" d="M600,500v-25c-13.81,0-25,11.19-25,25h25ZM575,733.33c0,13.81,11.19,25,25,25s25-11.19,25-25h-50ZM712.01,746.39c7.21,11.78,22.6,15.48,34.37,8.27,11.78-7.21,15.48-22.6,8.27-34.37l-42.64,26.11ZM600,525h76.19v-50h-76.19v50ZM625,616.67v-116.67h-50v116.67h50ZM708.33,558.33c0,18.9-14.87,33.33-32.14,33.33v50c45.85,0,82.14-37.8,82.14-83.33h-50ZM676.19,525c17.27,0,32.14,14.44,32.14,33.33h50c0-45.54-36.29-83.33-82.14-83.33v50ZM676.19,591.67h-14.29v50h14.29v-50ZM661.9,591.67h-61.9v50h61.9v-50ZM640.58,629.72l71.43,116.67,42.64-26.11-71.43-116.67-42.64,26.11ZM575,616.67v116.67h50v-116.67h-50Z"/>
</svg>